<svg xmlns="http://www.w3.org/2000/svg" xmlns:xlink="http://www.w3.org/1999/xlink" width="500" zoomAndPan="magnify" viewBox="0 0 375 374.999991" height="500" preserveAspectRatio="xMidYMid meet" version="1.0"><defs><g/><clipPath id="66fd88fce2"><path d="M 46.507812 260.605469 L 155.113281 260.605469 L 155.113281 268.496094 L 46.507812 268.496094 Z M 46.507812 260.605469 " clip-rule="nonzero"/></clipPath></defs><g fill="#000031" fill-opacity="1"><g transform="translate(43.513008, 238.681626)"><g><path d="M 4.484375 0 L 24.078125 -98 L 67.203125 -98 C 73.828125 -98 79.378906 -96.804688 83.859375 -94.421875 C 88.335938 -92.046875 91.554688 -88.78125 93.515625 -84.625 C 95.472656 -80.476562 95.894531 -75.648438 94.78125 -70.140625 C 93.007812 -61.085938 87.828125 -54.320312 79.234375 -49.84375 C 83.347656 -47.695312 86.289062 -44.546875 88.0625 -40.390625 C 89.832031 -36.234375 90.160156 -31.40625 89.046875 -25.90625 C 87.453125 -17.96875 83.25 -11.664062 76.4375 -7 C 69.625 -2.332031 61.175781 0 51.09375 0 Z M 30.09375 -17.640625 L 50.40625 -17.640625 C 54.789062 -17.640625 58.425781 -18.734375 61.3125 -20.921875 C 64.207031 -23.117188 66.03125 -26.082031 66.78125 -29.8125 C 67.53125 -33.363281 66.921875 -36.140625 64.953125 -38.140625 C 62.992188 -40.148438 59.867188 -41.15625 55.578125 -41.15625 L 34.859375 -41.15625 Z M 38.21875 -58.09375 L 56.28125 -58.09375 C 60.570312 -58.09375 64.09375 -59.097656 66.84375 -61.109375 C 69.601562 -63.117188 71.304688 -65.941406 71.953125 -69.578125 C 72.609375 -73.035156 72.023438 -75.695312 70.203125 -77.5625 C 68.390625 -79.425781 65.382812 -80.359375 61.1875 -80.359375 L 42.703125 -80.359375 Z M 38.21875 -58.09375 "/></g></g></g><g fill="#000031" fill-opacity="1"><g transform="translate(139.967606, 238.681626)"><g><path d="M 39.625 1.953125 C 31.3125 1.953125 24.351562 0.625 18.75 -2.03125 C 13.15625 -4.6875 9.164062 -8.488281 6.78125 -13.4375 C 4.40625 -18.382812 3.875 -24.265625 5.1875 -31.078125 L 26.734375 -31.078125 C 25.992188 -26.503906 26.859375 -22.910156 29.328125 -20.296875 C 31.804688 -17.679688 35.75 -16.375 41.15625 -16.375 C 46.101562 -16.375 50.09375 -17.304688 53.125 -19.171875 C 56.164062 -21.046875 58.007812 -23.519531 58.65625 -26.59375 C 59.40625 -30.144531 58.566406 -33.0625 56.140625 -35.34375 C 53.710938 -37.632812 49.1875 -39.476562 42.5625 -40.875 C 31.820312 -43.113281 23.910156 -46.914062 18.828125 -52.28125 C 13.742188 -57.65625 12.085938 -64.726562 13.859375 -73.5 C 15.441406 -81.53125 19.707031 -87.945312 26.65625 -92.75 C 33.613281 -97.550781 42.742188 -99.953125 54.046875 -99.953125 C 65.984375 -99.953125 74.960938 -97.035156 80.984375 -91.203125 C 87.003906 -85.367188 89.269531 -77.601562 87.78125 -67.90625 L 66.21875 -67.90625 C 66.96875 -72.007812 66.222656 -75.367188 63.984375 -77.984375 C 61.742188 -80.597656 57.867188 -81.90625 52.359375 -81.90625 C 47.785156 -81.90625 44.03125 -80.96875 41.09375 -79.09375 C 38.15625 -77.226562 36.40625 -74.847656 35.84375 -71.953125 C 35.09375 -68.316406 35.976562 -65.425781 38.5 -63.28125 C 41.019531 -61.132812 45.6875 -59.269531 52.5 -57.6875 C 63.507812 -55.257812 71.414062 -51.289062 76.21875 -45.78125 C 81.03125 -40.269531 82.644531 -33.410156 81.0625 -25.203125 C 79.476562 -16.890625 75.113281 -10.285156 67.96875 -5.390625 C 60.832031 -0.492188 51.382812 1.953125 39.625 1.953125 Z M 39.625 1.953125 "/></g></g></g><g fill="#000031" fill-opacity="1"><g transform="translate(229.562594, 238.681626)"><g><path d="M 4.484375 0 L 24.078125 -98 L 46.765625 -98 L 39.203125 -60.34375 L 47.1875 -60.34375 C 52.40625 -60.34375 56.460938 -61.273438 59.359375 -63.140625 C 62.253906 -65.003906 64.960938 -68.222656 67.484375 -72.796875 L 81.625 -98 L 106.6875 -98 L 86.515625 -62.859375 C 82.785156 -56.421875 78.539062 -51.285156 73.78125 -47.453125 L 90.4375 0 L 66.921875 0 L 53.203125 -39.90625 C 52.171875 -39.8125 51.117188 -39.738281 50.046875 -39.6875 C 48.972656 -39.644531 47.878906 -39.625 46.765625 -39.625 L 35.140625 -39.625 L 27.15625 0 Z M 4.484375 0 "/></g></g></g><g clip-path="url(#66fd88fce2)"><path fill="#000031" d="M 46.507812 260.605469 L 155.101562 260.605469 L 155.101562 268.496094 L 46.507812 268.496094 Z M 46.507812 260.605469 " fill-opacity="1" fill-rule="nonzero"/></g><g fill="#000031" fill-opacity="1"><g transform="translate(165.227908, 268.891593)"><g><path d="M 0.359375 0 L 1.890625 -7.703125 L 3.265625 -7.703125 L 5.203125 -3.703125 L 8.734375 -7.703125 L 10.34375 -7.703125 L 8.796875 0 L 7.03125 0 L 7.53125 -2.53125 L 7.96875 -4.59375 L 5.59375 -1.90625 L 4.375 -1.90625 L 3.0625 -4.625 L 2.625 -2.53125 L 2.125 0 Z M 0.359375 0 "/></g></g></g><g fill="#000031" fill-opacity="1"><g transform="translate(178.200631, 268.891593)"><g><path d="M 4.125 0.15625 C 3.289062 0.15625 2.585938 -0.0195312 2.015625 -0.375 C 1.453125 -0.726562 1.050781 -1.21875 0.8125 -1.84375 C 0.570312 -2.46875 0.53125 -3.179688 0.6875 -3.984375 C 0.832031 -4.742188 1.128906 -5.414062 1.578125 -6 C 2.035156 -6.582031 2.59375 -7.035156 3.25 -7.359375 C 3.914062 -7.691406 4.640625 -7.859375 5.421875 -7.859375 C 6.253906 -7.859375 6.953125 -7.675781 7.515625 -7.3125 C 8.085938 -6.957031 8.492188 -6.46875 8.734375 -5.84375 C 8.984375 -5.226562 9.023438 -4.519531 8.859375 -3.71875 C 8.710938 -2.957031 8.410156 -2.285156 7.953125 -1.703125 C 7.503906 -1.117188 6.945312 -0.660156 6.28125 -0.328125 C 5.625 -0.00390625 4.90625 0.15625 4.125 0.15625 Z M 2.453125 -3.8125 C 2.367188 -3.363281 2.382812 -2.960938 2.5 -2.609375 C 2.625 -2.265625 2.835938 -1.992188 3.140625 -1.796875 C 3.441406 -1.597656 3.816406 -1.5 4.265625 -1.5 C 4.734375 -1.5 5.160156 -1.597656 5.546875 -1.796875 C 5.941406 -2.003906 6.273438 -2.285156 6.546875 -2.640625 C 6.816406 -3.003906 7 -3.421875 7.09375 -3.890625 C 7.1875 -4.347656 7.171875 -4.75 7.046875 -5.09375 C 6.921875 -5.4375 6.707031 -5.703125 6.40625 -5.890625 C 6.101562 -6.085938 5.726562 -6.1875 5.28125 -6.1875 C 4.820312 -6.1875 4.394531 -6.085938 4 -5.890625 C 3.601562 -5.691406 3.269531 -5.410156 3 -5.046875 C 2.726562 -4.691406 2.546875 -4.28125 2.453125 -3.8125 Z M 2.453125 -3.8125 "/></g></g></g><g fill="#000031" fill-opacity="1"><g transform="translate(190.030169, 268.891593)"><g><path d="M 2.171875 0 L 3.390625 -6.0625 L 0.96875 -6.0625 L 1.296875 -7.703125 L 7.921875 -7.703125 L 7.59375 -6.0625 L 5.171875 -6.0625 L 3.953125 0 Z M 2.171875 0 "/></g></g></g><g fill="#000031" fill-opacity="1"><g transform="translate(199.991023, 268.891593)"><g><path d="M 4.125 0.15625 C 3.289062 0.15625 2.585938 -0.0195312 2.015625 -0.375 C 1.453125 -0.726562 1.050781 -1.21875 0.8125 -1.84375 C 0.570312 -2.46875 0.53125 -3.179688 0.6875 -3.984375 C 0.832031 -4.742188 1.128906 -5.414062 1.578125 -6 C 2.035156 -6.582031 2.59375 -7.035156 3.25 -7.359375 C 3.914062 -7.691406 4.640625 -7.859375 5.421875 -7.859375 C 6.253906 -7.859375 6.953125 -7.675781 7.515625 -7.3125 C 8.085938 -6.957031 8.492188 -6.46875 8.734375 -5.84375 C 8.984375 -5.226562 9.023438 -4.519531 8.859375 -3.71875 C 8.710938 -2.957031 8.410156 -2.285156 7.953125 -1.703125 C 7.503906 -1.117188 6.945312 -0.660156 6.28125 -0.328125 C 5.625 -0.00390625 4.90625 0.15625 4.125 0.15625 Z M 2.453125 -3.8125 C 2.367188 -3.363281 2.382812 -2.960938 2.5 -2.609375 C 2.625 -2.265625 2.835938 -1.992188 3.140625 -1.796875 C 3.441406 -1.597656 3.816406 -1.5 4.265625 -1.5 C 4.734375 -1.5 5.160156 -1.597656 5.546875 -1.796875 C 5.941406 -2.003906 6.273438 -2.285156 6.546875 -2.640625 C 6.816406 -3.003906 7 -3.421875 7.09375 -3.890625 C 7.1875 -4.347656 7.171875 -4.75 7.046875 -5.09375 C 6.921875 -5.4375 6.707031 -5.703125 6.40625 -5.890625 C 6.101562 -6.085938 5.726562 -6.1875 5.28125 -6.1875 C 4.820312 -6.1875 4.394531 -6.085938 4 -5.890625 C 3.601562 -5.691406 3.269531 -5.410156 3 -5.046875 C 2.726562 -4.691406 2.546875 -4.28125 2.453125 -3.8125 Z M 2.453125 -3.8125 "/></g></g></g><g fill="#000031" fill-opacity="1"><g transform="translate(211.820562, 268.891593)"><g><path d="M 0.359375 0 L 1.890625 -7.703125 L 5.078125 -7.703125 C 5.691406 -7.703125 6.195312 -7.582031 6.59375 -7.34375 C 6.988281 -7.113281 7.265625 -6.789062 7.421875 -6.375 C 7.585938 -5.96875 7.613281 -5.484375 7.5 -4.921875 C 7.394531 -4.378906 7.175781 -3.910156 6.84375 -3.515625 C 6.507812 -3.128906 6.09375 -2.84375 5.59375 -2.65625 L 6.640625 0 L 4.671875 0 L 3.765625 -2.390625 L 2.59375 -2.390625 L 2.109375 0 Z M 2.859375 -3.875 L 4.109375 -3.875 C 4.578125 -3.875 4.945312 -3.976562 5.21875 -4.1875 C 5.488281 -4.394531 5.660156 -4.6875 5.734375 -5.0625 C 5.816406 -5.414062 5.769531 -5.691406 5.59375 -5.890625 C 5.414062 -6.097656 5.09375 -6.203125 4.625 -6.203125 L 3.328125 -6.203125 Z M 2.859375 -3.875 "/></g></g></g><g fill="#000031" fill-opacity="1"><g transform="translate(222.221101, 268.891593)"><g><path d="M 4.03125 0.15625 C 3.226562 0.15625 2.546875 -0.0195312 1.984375 -0.375 C 1.429688 -0.726562 1.035156 -1.21875 0.796875 -1.84375 C 0.566406 -2.46875 0.53125 -3.179688 0.6875 -3.984375 C 0.84375 -4.753906 1.132812 -5.429688 1.5625 -6.015625 C 2 -6.597656 2.535156 -7.050781 3.171875 -7.375 C 3.804688 -7.695312 4.503906 -7.859375 5.265625 -7.859375 C 5.929688 -7.859375 6.519531 -7.726562 7.03125 -7.46875 C 7.550781 -7.21875 7.960938 -6.863281 8.265625 -6.40625 C 8.566406 -5.957031 8.726562 -5.425781 8.75 -4.8125 L 6.96875 -4.8125 C 6.914062 -5.238281 6.726562 -5.570312 6.40625 -5.8125 C 6.082031 -6.0625 5.6875 -6.1875 5.21875 -6.1875 C 4.757812 -6.1875 4.335938 -6.082031 3.953125 -5.875 C 3.566406 -5.675781 3.242188 -5.398438 2.984375 -5.046875 C 2.722656 -4.691406 2.546875 -4.28125 2.453125 -3.8125 C 2.367188 -3.351562 2.378906 -2.953125 2.484375 -2.609375 C 2.597656 -2.265625 2.800781 -1.992188 3.09375 -1.796875 C 3.382812 -1.597656 3.75 -1.5 4.1875 -1.5 C 4.675781 -1.5 5.140625 -1.628906 5.578125 -1.890625 C 6.023438 -2.148438 6.378906 -2.503906 6.640625 -2.953125 L 8.453125 -2.953125 C 8.203125 -2.296875 7.851562 -1.734375 7.40625 -1.265625 C 6.96875 -0.804688 6.460938 -0.453125 5.890625 -0.203125 C 5.316406 0.0351562 4.695312 0.15625 4.03125 0.15625 Z M 4.03125 0.15625 "/></g></g></g><g fill="#000031" fill-opacity="1"><g transform="translate(233.764836, 268.891593)"><g><path d="M 2.328125 0 L 2.890625 -2.765625 L 1.0625 -7.703125 L 2.890625 -7.703125 L 3.484375 -5.921875 L 3.96875 -4.515625 L 5.015625 -5.921875 L 6.34375 -7.703125 L 8.484375 -7.703125 L 4.625 -2.65625 L 4.078125 0 Z M 2.328125 0 "/></g></g></g><g fill="#000031" fill-opacity="1"><g transform="translate(244.044468, 268.891593)"><g><path d="M 4.03125 0.15625 C 3.226562 0.15625 2.546875 -0.0195312 1.984375 -0.375 C 1.429688 -0.726562 1.035156 -1.21875 0.796875 -1.84375 C 0.566406 -2.46875 0.53125 -3.179688 0.6875 -3.984375 C 0.84375 -4.753906 1.132812 -5.429688 1.5625 -6.015625 C 2 -6.597656 2.535156 -7.050781 3.171875 -7.375 C 3.804688 -7.695312 4.503906 -7.859375 5.265625 -7.859375 C 5.929688 -7.859375 6.519531 -7.726562 7.03125 -7.46875 C 7.550781 -7.21875 7.960938 -6.863281 8.265625 -6.40625 C 8.566406 -5.957031 8.726562 -5.425781 8.75 -4.8125 L 6.96875 -4.8125 C 6.914062 -5.238281 6.726562 -5.570312 6.40625 -5.8125 C 6.082031 -6.0625 5.6875 -6.1875 5.21875 -6.1875 C 4.757812 -6.1875 4.335938 -6.082031 3.953125 -5.875 C 3.566406 -5.675781 3.242188 -5.398438 2.984375 -5.046875 C 2.722656 -4.691406 2.546875 -4.28125 2.453125 -3.8125 C 2.367188 -3.351562 2.378906 -2.953125 2.484375 -2.609375 C 2.597656 -2.265625 2.800781 -1.992188 3.09375 -1.796875 C 3.382812 -1.597656 3.75 -1.5 4.1875 -1.5 C 4.675781 -1.5 5.140625 -1.628906 5.578125 -1.890625 C 6.023438 -2.148438 6.378906 -2.503906 6.640625 -2.953125 L 8.453125 -2.953125 C 8.203125 -2.296875 7.851562 -1.734375 7.40625 -1.265625 C 6.96875 -0.804688 6.460938 -0.453125 5.890625 -0.203125 C 5.316406 0.0351562 4.695312 0.15625 4.03125 0.15625 Z M 4.03125 0.15625 "/></g></g></g><g fill="#000031" fill-opacity="1"><g transform="translate(255.588202, 268.891593)"><g><path d="M 0.359375 0 L 1.890625 -7.703125 L 3.671875 -7.703125 L 2.453125 -1.640625 L 5.796875 -1.640625 L 5.46875 0 Z M 0.359375 0 "/></g></g></g><g fill="#000031" fill-opacity="1"><g transform="translate(264.603726, 268.891593)"><g><path d="M 0.359375 0 L 1.890625 -7.703125 L 6.953125 -7.703125 L 6.671875 -6.21875 L 3.359375 -6.21875 L 3.046875 -4.625 L 6.046875 -4.625 L 5.75 -3.171875 L 2.765625 -3.171875 L 2.421875 -1.484375 L 5.828125 -1.484375 L 5.53125 0 Z M 0.359375 0 "/></g></g></g><g fill="#000031" fill-opacity="1"><g transform="translate(273.949016, 268.891593)"><g/></g></g><g fill="#000031" fill-opacity="1"><g transform="translate(279.205196, 268.891593)"><g><path d="M 2.171875 0 L 3.390625 -6.0625 L 0.96875 -6.0625 L 1.296875 -7.703125 L 7.921875 -7.703125 L 7.59375 -6.0625 L 5.171875 -6.0625 L 3.953125 0 Z M 2.171875 0 "/></g></g></g><g fill="#000031" fill-opacity="1"><g transform="translate(289.166052, 268.891593)"><g><path d="M 0.359375 0 L 1.890625 -7.703125 L 6.953125 -7.703125 L 6.671875 -6.21875 L 3.359375 -6.21875 L 3.046875 -4.625 L 6.046875 -4.625 L 5.75 -3.171875 L 2.765625 -3.171875 L 2.421875 -1.484375 L 5.828125 -1.484375 L 5.53125 0 Z M 0.359375 0 "/></g></g></g><g fill="#000031" fill-opacity="1"><g transform="translate(298.511343, 268.891593)"><g><path d="M -0.46875 0 L 4.109375 -7.703125 L 5.84375 -7.703125 L 7.359375 0 L 5.609375 0 L 5.375 -1.328125 L 2.296875 -1.328125 L 1.5 0 Z M 3.015625 -2.703125 L 5.171875 -2.703125 L 4.640625 -5.515625 Z M 3.015625 -2.703125 "/></g></g></g><g fill="#000031" fill-opacity="1"><g transform="translate(309.208673, 268.891593)"><g><path d="M 0.359375 0 L 1.890625 -7.703125 L 3.265625 -7.703125 L 5.203125 -3.703125 L 8.734375 -7.703125 L 10.34375 -7.703125 L 8.796875 0 L 7.03125 0 L 7.53125 -2.53125 L 7.96875 -4.59375 L 5.59375 -1.90625 L 4.375 -1.90625 L 3.0625 -4.625 L 2.625 -2.53125 L 2.125 0 Z M 0.359375 0 "/></g></g></g><g fill="#000031" fill-opacity="1"><g transform="translate(73.959037, 281.83566)"><g><path d="M 0.28125 0 L 1.46875 -6 L 3.796875 -6 C 4.410156 -6 4.929688 -5.859375 5.359375 -5.578125 C 5.796875 -5.304688 6.101562 -4.929688 6.28125 -4.453125 C 6.457031 -3.984375 6.488281 -3.441406 6.375 -2.828125 C 6.257812 -2.253906 6.03125 -1.753906 5.6875 -1.328125 C 5.351562 -0.898438 4.925781 -0.570312 4.40625 -0.34375 C 3.882812 -0.113281 3.304688 0 2.671875 0 Z M 1.90625 -1.25 L 2.828125 -1.25 C 3.179688 -1.25 3.507812 -1.320312 3.8125 -1.46875 C 4.113281 -1.625 4.367188 -1.832031 4.578125 -2.09375 C 4.785156 -2.351562 4.921875 -2.660156 4.984375 -3.015625 C 5.097656 -3.546875 5.023438 -3.96875 4.765625 -4.28125 C 4.515625 -4.59375 4.117188 -4.75 3.578125 -4.75 L 2.59375 -4.75 Z M 1.90625 -1.25 "/></g></g></g><g fill="#000031" fill-opacity="1"><g transform="translate(80.575633, 281.83566)"><g><path d="M 0.28125 0 L 1.46875 -6 L 5.40625 -6 L 5.1875 -4.84375 L 2.625 -4.84375 L 2.375 -3.609375 L 4.703125 -3.609375 L 4.484375 -2.46875 L 2.15625 -2.46875 L 1.890625 -1.15625 L 4.53125 -1.15625 L 4.3125 0 Z M 0.28125 0 "/></g></g></g><g fill="#000031" fill-opacity="1"><g transform="translate(85.771337, 281.83566)"><g><path d="M 2.421875 0.125 C 1.910156 0.125 1.484375 0.0390625 1.140625 -0.125 C 0.804688 -0.289062 0.566406 -0.523438 0.421875 -0.828125 C 0.273438 -1.128906 0.238281 -1.488281 0.3125 -1.90625 L 1.640625 -1.90625 C 1.585938 -1.625 1.632812 -1.398438 1.78125 -1.234375 C 1.9375 -1.078125 2.179688 -1 2.515625 -1 C 2.816406 -1 3.0625 -1.054688 3.25 -1.171875 C 3.4375 -1.285156 3.550781 -1.4375 3.59375 -1.625 C 3.632812 -1.84375 3.582031 -2.019531 3.4375 -2.15625 C 3.289062 -2.300781 3.015625 -2.414062 2.609375 -2.5 C 1.953125 -2.632812 1.46875 -2.863281 1.15625 -3.1875 C 0.84375 -3.519531 0.738281 -3.957031 0.84375 -4.5 C 0.945312 -4.988281 1.207031 -5.378906 1.625 -5.671875 C 2.050781 -5.960938 2.613281 -6.109375 3.3125 -6.109375 C 4.039062 -6.109375 4.585938 -5.929688 4.953125 -5.578125 C 5.316406 -5.222656 5.457031 -4.75 5.375 -4.15625 L 4.046875 -4.15625 C 4.097656 -4.40625 4.050781 -4.609375 3.90625 -4.765625 C 3.769531 -4.929688 3.535156 -5.015625 3.203125 -5.015625 C 2.921875 -5.015625 2.691406 -4.957031 2.515625 -4.84375 C 2.335938 -4.726562 2.226562 -4.582031 2.1875 -4.40625 C 2.144531 -4.175781 2.195312 -3.992188 2.34375 -3.859375 C 2.5 -3.734375 2.789062 -3.625 3.21875 -3.53125 C 3.882812 -3.382812 4.363281 -3.140625 4.65625 -2.796875 C 4.957031 -2.460938 5.054688 -2.046875 4.953125 -1.546875 C 4.859375 -1.035156 4.59375 -0.628906 4.15625 -0.328125 C 3.71875 -0.0234375 3.140625 0.125 2.421875 0.125 Z M 2.421875 0.125 "/></g></g></g><g fill="#000031" fill-opacity="1"><g transform="translate(91.249504, 281.83566)"><g><path d="M 0.28125 0 L 1.46875 -6 L 3.796875 -6 C 4.410156 -6 4.929688 -5.859375 5.359375 -5.578125 C 5.796875 -5.304688 6.101562 -4.929688 6.28125 -4.453125 C 6.457031 -3.984375 6.488281 -3.441406 6.375 -2.828125 C 6.257812 -2.253906 6.03125 -1.753906 5.6875 -1.328125 C 5.351562 -0.898438 4.925781 -0.570312 4.40625 -0.34375 C 3.882812 -0.113281 3.304688 0 2.671875 0 Z M 1.90625 -1.25 L 2.828125 -1.25 C 3.179688 -1.25 3.507812 -1.320312 3.8125 -1.46875 C 4.113281 -1.625 4.367188 -1.832031 4.578125 -2.09375 C 4.785156 -2.351562 4.921875 -2.660156 4.984375 -3.015625 C 5.097656 -3.546875 5.023438 -3.96875 4.765625 -4.28125 C 4.515625 -4.59375 4.117188 -4.75 3.578125 -4.75 L 2.59375 -4.75 Z M 1.90625 -1.25 "/></g></g></g><g fill="#000031" fill-opacity="1"><g transform="translate(97.866101, 281.83566)"><g><path d="M 0.28125 0 L 1.46875 -6 L 5.40625 -6 L 5.1875 -4.84375 L 2.625 -4.84375 L 2.375 -3.609375 L 4.703125 -3.609375 L 4.484375 -2.46875 L 2.15625 -2.46875 L 1.890625 -1.15625 L 4.53125 -1.15625 L 4.3125 0 Z M 0.28125 0 "/></g></g></g><g fill="#000031" fill-opacity="1"><g transform="translate(103.061804, 281.83566)"><g/></g></g><g fill="#000031" fill-opacity="1"><g transform="translate(105.073321, 281.83566)"><g><path d="M 0 0 L 0.1875 -0.953125 L 3.0625 -3.078125 C 3.320312 -3.273438 3.515625 -3.457031 3.640625 -3.625 C 3.773438 -3.789062 3.859375 -3.960938 3.890625 -4.140625 C 3.941406 -4.390625 3.90625 -4.585938 3.78125 -4.734375 C 3.65625 -4.878906 3.460938 -4.953125 3.203125 -4.953125 C 2.921875 -4.953125 2.679688 -4.863281 2.484375 -4.6875 C 2.296875 -4.519531 2.164062 -4.285156 2.09375 -3.984375 L 0.828125 -3.984375 C 0.972656 -4.660156 1.257812 -5.179688 1.6875 -5.546875 C 2.125 -5.921875 2.664062 -6.109375 3.3125 -6.109375 C 3.757812 -6.109375 4.140625 -6.019531 4.453125 -5.84375 C 4.765625 -5.675781 4.988281 -5.441406 5.125 -5.140625 C 5.257812 -4.835938 5.285156 -4.488281 5.203125 -4.09375 C 5.128906 -3.75 4.976562 -3.421875 4.75 -3.109375 C 4.519531 -2.796875 4.175781 -2.476562 3.71875 -2.15625 L 2.453125 -1.1875 L 4.734375 -1.1875 L 4.5 0 Z M 0 0 "/></g></g></g><g fill="#000031" fill-opacity="1"><g transform="translate(110.594284, 281.83566)"><g><path d="M 2.640625 0.125 C 2.097656 0.125 1.648438 -0.00390625 1.296875 -0.265625 C 0.941406 -0.523438 0.703125 -0.894531 0.578125 -1.375 C 0.453125 -1.851562 0.457031 -2.425781 0.59375 -3.09375 C 0.78125 -4.039062 1.140625 -4.78125 1.671875 -5.3125 C 2.210938 -5.84375 2.878906 -6.109375 3.671875 -6.109375 C 4.210938 -6.109375 4.660156 -5.976562 5.015625 -5.71875 C 5.367188 -5.457031 5.609375 -5.085938 5.734375 -4.609375 C 5.859375 -4.128906 5.851562 -3.554688 5.71875 -2.890625 C 5.53125 -1.941406 5.164062 -1.203125 4.625 -0.671875 C 4.09375 -0.140625 3.429688 0.125 2.640625 0.125 Z M 1.90625 -2.96875 C 1.789062 -2.375 1.804688 -1.910156 1.953125 -1.578125 C 2.097656 -1.253906 2.363281 -1.09375 2.75 -1.09375 C 3.15625 -1.09375 3.5 -1.257812 3.78125 -1.59375 C 4.070312 -1.9375 4.28125 -2.410156 4.40625 -3.015625 C 4.519531 -3.617188 4.503906 -4.082031 4.359375 -4.40625 C 4.210938 -4.726562 3.945312 -4.890625 3.5625 -4.890625 C 3.164062 -4.890625 2.820312 -4.71875 2.53125 -4.375 C 2.238281 -4.039062 2.03125 -3.570312 1.90625 -2.96875 Z M 1.90625 -2.96875 "/></g></g></g><g fill="#000031" fill-opacity="1"><g transform="translate(116.603147, 281.83566)"><g><path d="M 0 0 L 0.1875 -0.953125 L 3.0625 -3.078125 C 3.320312 -3.273438 3.515625 -3.457031 3.640625 -3.625 C 3.773438 -3.789062 3.859375 -3.960938 3.890625 -4.140625 C 3.941406 -4.390625 3.90625 -4.585938 3.78125 -4.734375 C 3.65625 -4.878906 3.460938 -4.953125 3.203125 -4.953125 C 2.921875 -4.953125 2.679688 -4.863281 2.484375 -4.6875 C 2.296875 -4.519531 2.164062 -4.285156 2.09375 -3.984375 L 0.828125 -3.984375 C 0.972656 -4.660156 1.257812 -5.179688 1.6875 -5.546875 C 2.125 -5.921875 2.664062 -6.109375 3.3125 -6.109375 C 3.757812 -6.109375 4.140625 -6.019531 4.453125 -5.84375 C 4.765625 -5.675781 4.988281 -5.441406 5.125 -5.140625 C 5.257812 -4.835938 5.285156 -4.488281 5.203125 -4.09375 C 5.128906 -3.75 4.976562 -3.421875 4.75 -3.109375 C 4.519531 -2.796875 4.175781 -2.476562 3.71875 -2.15625 L 2.453125 -1.1875 L 4.734375 -1.1875 L 4.5 0 Z M 0 0 "/></g></g></g><g fill="#000031" fill-opacity="1"><g transform="translate(122.12411, 281.83566)"><g><path d="M 0 0 L 0.1875 -0.953125 L 3.0625 -3.078125 C 3.320312 -3.273438 3.515625 -3.457031 3.640625 -3.625 C 3.773438 -3.789062 3.859375 -3.960938 3.890625 -4.140625 C 3.941406 -4.390625 3.90625 -4.585938 3.78125 -4.734375 C 3.65625 -4.878906 3.460938 -4.953125 3.203125 -4.953125 C 2.921875 -4.953125 2.679688 -4.863281 2.484375 -4.6875 C 2.296875 -4.519531 2.164062 -4.285156 2.09375 -3.984375 L 0.828125 -3.984375 C 0.972656 -4.660156 1.257812 -5.179688 1.6875 -5.546875 C 2.125 -5.921875 2.664062 -6.109375 3.3125 -6.109375 C 3.757812 -6.109375 4.140625 -6.019531 4.453125 -5.84375 C 4.765625 -5.675781 4.988281 -5.441406 5.125 -5.140625 C 5.257812 -4.835938 5.285156 -4.488281 5.203125 -4.09375 C 5.128906 -3.75 4.976562 -3.421875 4.75 -3.109375 C 4.519531 -2.796875 4.175781 -2.476562 3.71875 -2.15625 L 2.453125 -1.1875 L 4.734375 -1.1875 L 4.5 0 Z M 0 0 "/></g></g></g></svg>